<svg width="140" height="32" viewBox="0 0 140 32" fill="none" xmlns="http://www.w3.org/2000/svg">
<g clip-path="url(#clip0_114_2638)">
<path d="M8.4353 25.9985C8.4353 25.9985 11.4488 25.6633 11.6163 25.6076C11.7838 25.5518 14.909 25.7192 14.909 25.7192L16.9176 26.2218L18.7586 26.8918L19.261 27.0593L21.9954 26.0542L25.288 25.5518L27.52 25.6076L29.2493 25.8308L29.9752 26.0542L29.9193 29.0678L28.4117 28.677L25.5099 28.4536L23.5014 28.6211L21.772 29.0119L20.2102 29.5145L19.0935 29.9612L16.7501 29.0678L13.904 28.5095H10.6113L8.4353 28.9003V25.9985Z" fill="#1B3882" fill-opacity="0.5"/>
<path d="M19.0844 30.4868C14.0113 27.6934 8.62319 29.3684 8.5689 29.3855L7.96094 29.5794V25.733L8.28353 25.629C8.51772 25.5531 14.0981 23.8082 19.5327 26.8L19.0844 27.6158C14.7231 25.215 10.1307 26.1161 8.89151 26.4263V28.334C10.5107 27.9493 15.0706 27.2127 19.5327 29.6693L19.0844 30.4851V30.4868Z" fill="#1B3882"/>
<path d="M19.0207 30.4871L18.5725 29.6712C23.0347 27.2144 27.5944 27.9512 29.2136 28.3359V26.4282C27.9761 26.1164 23.3821 25.2168 19.0207 27.6177L18.5725 26.8019C24.0071 23.8102 29.5875 25.555 29.8217 25.631L30.1443 25.7348V29.5828L29.5362 29.3859C29.4836 29.3689 24.0955 27.6938 19.0207 30.4871Z" fill="#1B3882"/>
<path d="M24.8617 21.7144C24.8631 21.3779 24.7453 21.0894 24.5063 20.8382C24.2707 20.5994 23.9854 20.4861 23.6565 20.4953C23.3199 20.5187 23.033 20.6536 22.7911 20.8893C22.5552 21.1747 22.4405 21.4725 22.4422 21.8106C22.4405 22.1348 22.5552 22.4233 22.7865 22.6606C23.0221 22.9119 23.3106 23.0266 23.6519 23.0032C23.9837 23.0049 24.2692 22.87 24.5034 22.6093C24.7422 22.3488 24.86 22.0494 24.8631 21.713L24.8617 21.7144Z" fill="#1B3882" fill-opacity="0.5"/>
<path d="M15.466 22.6109C15.7049 22.3503 15.8227 22.065 15.8212 21.7269C15.8227 21.3903 15.7049 21.0769 15.4691 20.8133C15.2163 20.5993 14.9341 20.4984 14.6177 20.5078C14.2703 20.5435 13.9833 20.6659 13.7522 20.8769C13.5165 21.1374 13.3986 21.4477 13.3955 21.7982C13.3955 22.1347 13.5149 22.4232 13.7507 22.662C13.9787 22.9133 14.2656 23.0266 14.6053 23.0049C14.9558 22.994 15.2396 22.8714 15.4645 22.6109H15.466Z" fill="#1B3882" fill-opacity="0.5"/>
<path d="M19.0036 25.9812C18.0714 25.9812 17.1564 25.9036 16.4553 25.7236C14.5693 25.2398 13.068 24.3666 11.866 23.0528C10.6175 21.6865 10.5384 20.3697 10.4546 18.9754C10.4438 18.7971 10.4329 18.6157 10.4189 18.4311C10.3073 16.8879 9.57831 14.4761 9.57056 14.4528L9.51318 14.2636L9.62949 14.1039C10.7028 12.6428 12.0258 11.599 13.6775 10.9104C15.1944 10.2776 16.9997 9.94725 19.1974 9.89918C22.8562 9.68513 26.8452 11.2066 28.6847 13.5191L28.8011 13.6649L27.9682 17.5501C27.9588 17.7594 27.8969 18.853 27.5959 21.0879C27.2423 23.706 24.0086 25.2041 22.3474 25.6291C21.5036 25.8462 20.2365 25.9812 19.002 25.9812H19.0036ZM10.3848 14.414C10.5647 15.0329 11.1076 16.9855 11.2084 18.3721C11.2223 18.5598 11.2332 18.7458 11.2441 18.9274C11.3247 20.2861 11.3898 21.3593 12.4492 22.5194C13.5441 23.7168 14.9183 24.5155 16.6507 24.9591C18.1194 25.3359 20.767 25.2196 22.152 24.863C23.3446 24.5574 26.5071 23.2624 26.8141 20.9793C27.1384 18.5769 27.1803 17.4927 27.1818 17.4818V17.4477L27.9511 13.865C26.7413 11.5416 26.0231 11.0655 24.4847 10.4854C22.8623 9.8728 20.8849 10.5863 19.2361 10.684H19.2222C15.0191 10.7755 11.9374 9.42767 10.3833 14.4125L10.3848 14.414Z" fill="#1B3882"/>
<path d="M27.2669 14.1659C27.5663 14.9367 27.6935 15.3229 27.9742 16.0285C27.9742 16.0285 28.7171 14.8359 28.9513 13.9829C29.1871 13.1206 29.0428 12.0225 28.8582 10.9957C28.3945 9.27261 28.0347 9.13922 26.6435 8.11869C26.0262 7.69526 25.3283 7.31993 24.5387 6.98958C22.8312 6.34592 21.1157 5.98921 19.3896 5.91476C17.6789 5.88529 15.9527 6.14119 14.2233 6.67938C13.4199 6.95855 12.7034 7.29357 12.069 7.68131C10.6235 8.61654 9.61694 9.93331 9.05704 11.6239C8.9066 12.2598 8.66776 12.8708 8.72669 13.4602C8.99655 16.1636 10.76 17.35 10.639 16.6986C10.4824 15.8579 10.5832 15.3617 10.7988 14.5583C11.2083 13.0383 12.1776 11.9155 13.7084 11.2005H13.713C14.0108 11.1167 15.5199 10.259 17.5238 11.2842C18.0558 11.5122 18.9863 12.1295 19.4516 12.1155C19.9185 12.1016 20.59 11.6518 21.0786 11.3462C21.9968 10.7708 22.8668 10.5739 24.0161 10.9383C25.6865 11.4641 26.7117 12.6522 27.2669 14.1675V14.1659Z" fill="#1B3882"/>
<path d="M2.62219 12.8177L3.87847 13.1868L5.31932 13.1124L6.35381 12.4098L7.46275 11.4125L8.27546 10.3036L9.30995 9.23187L10.3072 8.60373L11.6736 8.3075L10.7493 9.93291L9.97376 10.7084L8.34836 12.962L7.6101 14.0709L6.76016 14.6618L5.5411 15.4745C5.5411 15.4745 4.46939 15.6963 4.35926 15.7336C4.24915 15.7707 3.36199 15.9181 3.36199 15.9181L2.58651 15.8808L1.99561 15.6963L2.54929 14.5874L2.62374 13.7747V12.8146L2.62219 12.8177Z" fill="#1B3882" fill-opacity="0.5"/>
<path d="M5.83585 6.4281L5.72418 7.27647L5.4295 7.86895L5.06037 8.42264L4.13599 8.97633L5.24494 9.53003L6.464 10.0108L7.72027 10.2698L8.27397 10.3071L9.60469 9.38269L11.0083 8.1264L10.5275 7.97907L8.792 7.7945L7.49849 7.31369L6.57412 6.83445L5.83585 6.4281Z" fill="#1B3882" fill-opacity="0.5"/>
<path d="M3.03181 16.2317C2.64096 16.2317 2.22995 16.2085 1.79879 16.1635L0.986084 16.0705L1.38623 15.8129L1.60026 15.5819C1.62973 15.5369 1.71504 15.388 1.85618 15.0747V15.0716C2.08418 14.5815 2.16328 13.7611 2.09348 12.6335L2.04539 11.8751L2.6301 12.359C3.24119 12.8646 4.00737 12.9856 4.97052 12.725C5.8313 12.48 6.76808 11.6766 7.7514 10.3396C8.65561 9.03838 9.95687 8.15588 11.6226 7.7154L11.7793 7.67352L12.8324 8.49399L11.8863 8.42575C11.7979 8.51105 11.7095 8.60255 11.6288 8.70336L11.6102 8.72663L11.5854 8.74834C11.0426 9.71304 10.2655 10.6653 9.48849 11.7076L9.47762 11.7262C9.35821 11.9356 9.23567 12.1527 9.10229 12.3683V12.3792L9.05887 12.449C8.26322 13.7425 7.38847 14.7118 6.4579 15.3322C5.60332 15.9309 4.45405 16.2333 3.03181 16.2333V16.2317ZM2.35868 15.5524C3.96393 15.6564 5.21557 15.402 6.08411 14.7909L6.09031 14.7863C6.93248 14.2264 7.73434 13.3377 8.47416 12.1465C8.48811 12.1062 8.50828 12.0721 8.52999 12.0457C8.66183 11.8332 8.78589 11.6145 8.90687 11.4021V11.3989C9.43264 10.3908 10.0375 9.49436 10.7122 8.72663C9.70562 9.1702 8.90841 9.82936 8.29113 10.7181L8.28648 10.7258C7.19926 12.207 6.17253 13.0678 5.14888 13.3594C4.24467 13.6029 3.45057 13.5594 2.77745 13.2306C2.79141 14.1581 2.68595 14.8545 2.45795 15.3462C2.42383 15.4237 2.39126 15.4919 2.36179 15.5524H2.35868Z" fill="#1B3882"/>
<path d="M3.10631 16.2317C2.71547 16.2317 2.30445 16.2085 1.87329 16.1635L1.94153 15.5105C3.78408 15.7043 5.20167 15.4624 6.15706 14.7908L6.16482 14.7862C7.007 14.2263 7.80884 13.3376 8.54864 12.1464C8.57502 12.0735 8.6169 12.0239 8.65412 11.9913L9.08374 12.4877C9.14888 12.4303 9.17679 12.3527 9.18144 12.2984L9.17524 12.3775L9.13337 12.4473C8.33772 13.7408 7.46297 14.7102 6.5324 15.3306C5.67782 15.9293 4.52855 16.2317 3.10631 16.2317Z" fill="#1B3882"/>
<path d="M8.71943 9.93637C8.57985 9.94568 8.44026 9.95344 8.30068 9.95809C7.19483 9.99686 6.01455 9.68822 4.78463 9.04147C5.85015 8.35283 6.14639 7.56804 6.10451 6.8608C6.35887 7.06243 6.62409 7.23924 6.90016 7.38968C8.70859 8.40867 10.6194 8.56998 13.8857 7.65644L13.6639 7.03762C10.5604 7.89374 8.87919 7.7526 7.2181 6.81583C6.74661 6.55991 6.30924 6.21561 5.91839 5.79529L5.87342 5.74721L5.20029 5.01825L5.32747 5.95504C5.34609 6.03259 5.73228 7.86117 3.96883 8.75298L3.4353 9.02285L3.95021 9.3284C5.39261 10.1861 6.79159 10.6203 8.10991 10.6203L8.71943 9.93793V9.93637Z" fill="#1B3882"/>
<path d="M17.0278 20.013C16.823 20.013 16.6307 19.8859 16.5361 19.6718C16.0973 18.6699 15.7529 18.2527 15.2333 17.6214C14.7075 16.9841 13.5877 15.9045 13.4032 15.7479C13.1566 15.5385 13.0868 15.2531 13.2341 15.0562C13.3086 14.9585 13.5288 14.7615 13.9817 15.0624C14.8998 15.6703 16.9379 17.499 17.4884 18.9677C17.6901 19.5012 17.4884 19.8641 17.2186 19.9744C17.155 20.0006 17.0914 20.0115 17.0261 20.0115L17.0278 20.013Z" fill="#1B3882"/>
<path d="M20.9903 20.0378C20.925 20.0378 20.8585 20.0255 20.7932 19.9975C20.5234 19.8843 20.328 19.5183 20.5359 18.9878C21.105 17.5267 23.1662 15.7245 24.0922 15.1275C24.5497 14.8328 24.7668 15.0313 24.8398 15.1306C24.9855 15.3291 24.9127 15.6129 24.6629 15.8192C24.4769 15.9743 23.3431 17.0367 22.8096 17.6696C22.2822 18.2946 21.9333 18.7071 21.4804 19.7043C21.3842 19.9153 21.1934 20.0394 20.9918 20.0394L20.9903 20.0378Z" fill="#1B3882"/>
<path d="M23.0145 4.01944C23.0285 3.25793 22.6579 2.60186 21.9026 2.05283C21.1347 1.51463 20.2182 1.24321 19.1527 1.23546C18.0871 1.2277 17.1737 1.48982 16.4215 2.02491C15.6645 2.56464 15.2783 3.21295 15.269 3.96827C15.2721 4.20402 15.2923 4.41959 15.3218 4.62123C18.1461 3.71236 20.6757 3.7868 22.9061 4.84612C22.9665 4.56384 23.0037 4.28932 23.0145 4.0179V4.01944Z" fill="#1B3882" fill-opacity="0.5"/>
<path d="M11.2054 19.3476L11.1914 19.3149C11.1542 19.2296 11.1216 19.1428 11.0953 19.0576L11.0162 18.8031L10.4935 18.8202L10.4532 19.2592C10.4563 19.2761 10.4656 19.318 10.4749 19.3925V19.4081C10.4795 19.4344 10.4811 19.4561 10.4857 19.4778C10.4935 19.7105 10.4237 19.8951 10.2655 20.0579C10.115 20.2177 9.91806 20.289 9.65905 20.2782C9.338 20.2657 9.23099 20.137 9.17825 20.0408C9.03711 19.7864 9.02781 19.65 9.03557 19.5895C9.05573 19.4236 9.08985 19.2484 9.13792 19.0715C9.21237 18.7954 9.15654 18.4743 8.96888 18.1191L8.77656 17.7548C8.70366 17.6167 8.64007 17.443 8.58733 17.2382C8.54702 17.066 8.55788 16.8598 8.61836 16.6224C8.67264 16.4131 8.78897 16.2487 8.97353 16.1184C9.15809 15.9943 9.37833 15.9494 9.64044 15.9835L9.66061 15.9866H9.68077C9.93822 15.9882 10.1492 16.013 10.3105 16.0564C10.2655 15.8051 10.2515 15.543 10.2748 15.2763C10.1057 15.2049 9.93513 15.1553 9.76298 15.132H9.75366L9.62649 15.1212C9.2434 15.0855 8.86961 15.1708 8.51599 15.3755C8.14996 15.5896 7.90336 15.9059 7.78394 16.3169C7.68157 16.6752 7.66916 17.0443 7.74517 17.412C7.75448 17.4678 7.76687 17.5329 7.78859 17.595C7.84597 17.7765 7.94058 17.9781 8.07086 18.1952C8.26939 18.5224 8.32988 18.6294 8.34694 18.6651L8.35314 18.6776C8.37796 18.7225 8.38261 18.7908 8.36555 18.8807L8.35933 18.9101C8.34073 19.011 8.32213 19.1055 8.31437 19.1412C8.15928 19.543 8.14376 19.9136 8.26628 20.2379C8.39036 20.5822 8.60906 20.8333 8.91925 20.9885C9.09915 21.0769 9.30699 21.1327 9.53809 21.1559C9.66372 21.1684 9.79554 21.1699 9.93357 21.1622C10.3818 21.139 10.7463 20.9265 10.9867 20.5526C11.2224 20.1975 11.2984 19.8035 11.2162 19.3833L11.21 19.3476H11.2054Z" fill="#1B3882"/>
<path d="M30.4668 15.7741C30.3459 15.3678 30.0946 15.053 29.7192 14.8374H29.7177C29.3812 14.6451 29.0214 14.566 28.646 14.6016C28.6321 14.6016 28.6181 14.6047 28.6041 14.6063L28.4801 14.6218H28.4692C28.2304 14.6606 27.9915 14.7505 27.7589 14.8855C27.7604 14.9041 27.7635 14.9242 27.7666 14.9429C27.7883 15.1802 27.7775 15.4144 27.7372 15.6423L27.8721 15.5881C28.0442 15.5183 28.2784 15.4609 28.5871 15.4144L28.6041 15.4112C28.84 15.3632 29.0431 15.4066 29.2416 15.5508C29.451 15.7028 29.5922 15.8921 29.6727 16.1263C29.7394 16.3465 29.7488 16.5357 29.7023 16.7032C29.6449 16.9125 29.5797 17.0988 29.5084 17.2554C29.4231 17.4353 29.3361 17.6105 29.2508 17.7703C29.1222 18.0091 29.0757 18.2681 29.1144 18.5379C29.147 18.7738 29.1812 18.9692 29.2199 19.1366C29.2479 19.253 29.2308 19.4019 29.1703 19.5787L29.1672 19.5865C29.1176 19.7447 28.8508 19.83 28.6957 19.8672C28.342 19.951 28.1839 19.8221 28.0892 19.7059C27.9279 19.498 27.8519 19.2732 27.8565 19.0203L27.8628 18.9475C27.8705 18.8745 27.8782 18.8374 27.8813 18.8234L27.8705 18.3705L27.2905 18.3844L27.2284 18.6326C27.2067 18.7179 27.1788 18.8017 27.1431 18.8854L27.1277 18.921L27.1214 18.9598C27.0532 19.3725 27.1385 19.7648 27.3727 20.1278L27.3789 20.1355C27.6348 20.5047 28.0008 20.7078 28.4367 20.7232C28.553 20.7295 28.6663 20.7264 28.7733 20.7172C29.0306 20.6938 29.2602 20.6256 29.4573 20.5155C29.7472 20.3558 29.9534 20.0999 30.0745 19.7539C30.1893 19.4142 30.1659 19.0451 30.0062 18.6559L29.9674 18.4263L29.9644 18.4092C29.9457 18.3271 29.9536 18.2464 29.9845 18.1657C30.045 18.0216 30.1271 17.8541 30.228 17.6633C30.3598 17.4306 30.4451 17.2337 30.4917 17.0662C30.515 16.9918 30.5304 16.9265 30.535 16.8614C30.5957 16.4969 30.5723 16.1324 30.4637 15.7772L30.4668 15.7741Z" fill="#1B3882"/>
<path d="M23.2935 4.74056C23.3385 4.49241 23.3648 4.2582 23.3742 4.02401C23.3896 3.15237 22.9694 2.39859 22.1225 1.78286C21.3051 1.20901 20.3172 0.914322 19.1865 0.90502C18.0527 0.894163 17.0694 1.18263 16.2615 1.7565C15.4161 2.35983 14.9818 3.10274 14.971 3.96507V3.97283C14.9725 4.14498 14.9834 4.31714 15.0051 4.49706C14.926 4.59166 14.8826 4.69558 14.8779 4.80725V4.81966C14.8779 5.11124 14.9198 5.40282 15.0082 5.6851L15.0098 5.69286C15.1307 6.04957 15.3386 6.38924 15.6286 6.70253L15.7123 6.7925L16.4754 6.87779C17.1269 7.25623 17.997 7.4594 19.067 7.47802C19.1137 7.47802 19.1602 7.47802 19.2051 7.47802C19.9946 7.47802 20.6847 7.38186 21.2586 7.19263L21.2742 7.18643C21.4896 7.10268 21.699 7.00187 21.8992 6.88555C22.5071 6.94294 22.9632 6.6436 23.1973 6.03406L23.2547 5.97203L23.2516 5.88518C23.3415 5.60911 23.4997 5.06782 23.2918 4.74056H23.2935ZM16.6414 2.29157C17.3332 1.79992 18.1861 1.55488 19.1802 1.56263C20.1745 1.57039 21.0369 1.82629 21.7394 2.31795C22.4078 2.8034 22.7273 3.35865 22.7165 4.0054C22.7119 4.12482 22.7025 4.24735 22.6854 4.37453C21.5564 3.90149 20.3512 3.66573 19.0749 3.66573C17.9784 3.66573 16.8306 3.84099 15.6364 4.18997C15.6317 4.11552 15.6286 4.04107 15.6271 3.96818C15.6364 3.31987 15.9683 2.77082 16.6414 2.29157ZM22.7102 5.3749L22.4885 5.85415C22.4885 5.85415 22.1985 6.27292 21.8821 6.22018L21.7595 6.20001L21.6541 6.26516C21.4619 6.38459 21.2571 6.48695 21.0446 6.56915C20.5095 6.74441 19.8472 6.82816 19.078 6.81731C18.1256 6.79869 17.3626 6.62809 16.8089 6.30704C16.7918 6.29617 16.7747 6.28533 16.7593 6.27757L16.6942 6.23724L16.0333 6.16435C15.9078 6.017 15.7294 5.70681 15.7294 5.70681L15.5479 5.18104C15.5479 5.18104 15.5386 4.95769 15.5371 4.90651C18.2109 4.06434 20.6336 4.13414 22.7382 5.11435C22.7413 5.15311 22.7102 5.3749 22.7102 5.3749ZM22.9073 5.86345V5.8588L22.9119 5.86345H22.9073Z" fill="#1B3882"/>
</g>
<path d="M135.128 15.7764C136.739 15.7764 137.839 16.3069 138.566 16.9748C139.411 17.741 140 18.9197 140 20.3145C140 21.6897 139.411 22.8684 138.566 23.6346C137.839 24.3025 136.739 24.8329 135.128 24.8329C133.517 24.8329 132.417 24.3025 131.69 23.6346C130.845 22.8684 130.256 21.6897 130.256 20.3145C130.256 18.9197 130.845 17.741 131.69 16.9748C132.417 16.3069 133.517 15.7764 135.128 15.7764ZM135.128 22.7112C136.523 22.7112 137.525 21.6111 137.525 20.3145C137.525 18.9786 136.503 17.8981 135.128 17.8981C133.753 17.8981 132.731 18.9786 132.731 20.3145C132.731 21.6111 133.733 22.7112 135.128 22.7112Z" fill="#1B3882"/>
<path d="M126.007 16.0515H128.404V24.5579H126.007V16.0515ZM125.771 12.4564C125.771 11.6706 126.42 11.0223 127.206 11.0223C127.991 11.0223 128.64 11.6706 128.64 12.4564C128.64 13.2422 127.991 13.8905 127.206 13.8905C126.42 13.8905 125.771 13.2422 125.771 12.4564Z" fill="#1B3882"/>
<path d="M121.325 17.1515V10.2364H123.722V24.5578H121.325V23.4577C120.461 24.6954 119.321 24.8329 118.712 24.8329C116.1 24.8329 114.371 22.7898 114.371 20.2948C114.371 17.7802 116.08 15.7764 118.595 15.7764C119.243 15.7764 120.52 15.8942 121.325 17.1515ZM119.204 17.8981C117.828 17.8981 116.846 18.9393 116.846 20.2948C116.846 21.6503 117.828 22.7112 119.204 22.7112C120.579 22.7112 121.561 21.6503 121.561 20.2948C121.561 18.9393 120.579 17.8981 119.204 17.8981Z" fill="#1B3882"/>
<path d="M104.271 16.0515H106.667V20.8646C106.667 21.3165 106.707 21.9255 107.178 22.3577C107.473 22.6131 107.944 22.7899 108.396 22.7899C108.848 22.7899 109.319 22.6131 109.614 22.3577C110.086 21.9255 110.125 21.3165 110.125 20.8646V16.0515H112.522V21.2575C112.522 22.0237 112.423 23.0453 111.48 23.8704C110.695 24.5579 109.437 24.833 108.396 24.833C107.355 24.833 106.098 24.5579 105.312 23.8704C104.369 23.0453 104.271 22.0237 104.271 21.2575V16.0515Z" fill="#1B3882"/>
<path d="M103.022 18.0945H101.372V24.5579H98.9754V18.0945H98.0325V16.0514H98.9754V13.1439H101.372V16.0514H103.022V18.0945Z" fill="#1B3882"/>
<path d="M96.6144 12.6921L95.2785 14.4405C94.5124 13.4189 93.6087 13.3207 93.1372 13.3207C91.762 13.3207 91.3298 14.1851 91.3298 14.8531C91.3298 15.1674 91.4281 15.4621 91.7424 15.7371C92.0567 16.0318 92.4889 16.1889 93.314 16.4836C94.3356 16.8372 95.2982 17.1908 95.9661 17.7999C96.5555 18.3303 97.0859 19.2143 97.0859 20.5502C97.0859 23.1041 95.2392 24.8525 92.5282 24.8525C90.1118 24.8525 88.6974 23.3791 88.0098 22.3772L89.6796 20.7859C90.3083 22.0629 91.5066 22.5344 92.43 22.5344C93.589 22.5344 94.4534 21.8271 94.4534 20.727C94.4534 20.2555 94.2963 19.8823 93.9427 19.5483C93.4515 19.0964 92.6657 18.8411 91.9192 18.5857C91.2316 18.3499 90.4065 18.0356 89.7386 17.4462C89.3064 17.073 88.6974 16.3461 88.6974 15.0102C88.6974 13.085 89.9939 11.1597 92.9015 11.1597C93.7266 11.1597 95.2785 11.3169 96.6144 12.6921Z" fill="#1B3882"/>
<path d="M78.4021 24.5579V16.0515H80.7988V17.1516C81.2507 16.523 82.0561 15.7764 83.4313 15.7764C84.1778 15.7764 85.278 15.9925 85.9459 16.8176C86.5353 17.5445 86.6138 18.3893 86.6138 19.2144V24.5579H84.2171V19.9216C84.2171 19.4501 84.1975 18.7036 83.7653 18.2517C83.392 17.8588 82.8812 17.8195 82.6455 17.8195C82.0168 17.8195 81.5257 18.0356 81.1721 18.5661C80.8185 19.1161 80.7988 19.7251 80.7988 20.2163V24.5579H78.4021Z" fill="#1B3882"/>
<path d="M71.3228 24.5579V16.0515H73.7195V17.3284C74.0927 16.6015 74.6035 16.2479 74.7803 16.1497C75.1536 15.9139 75.6251 15.7764 76.1948 15.7764C76.6073 15.7764 76.9413 15.8747 77.2164 15.9729L76.902 18.2125C76.5877 17.9964 76.2734 17.8981 75.7822 17.8981C75.3304 17.8981 74.6625 17.9964 74.191 18.5857C73.7391 19.1554 73.7195 19.8823 73.7195 20.4717V24.5579H71.3228Z" fill="#1B3882"/>
<path d="M67.2081 21.8272L69.4084 22.1808C69.153 22.8095 68.1904 24.8329 65.224 24.8329C63.8488 24.8329 62.8076 24.44 61.9628 23.6346C61.0199 22.7505 60.627 21.6504 60.627 20.3145C60.627 18.625 61.3145 17.5838 61.9235 16.9748C62.9255 15.9925 64.1042 15.7764 65.1257 15.7764C66.8545 15.7764 67.8564 16.464 68.4458 17.1712C69.3495 18.2517 69.4674 19.5876 69.4674 20.511V20.7074H63.1023C63.1023 21.2182 63.2398 21.7683 63.5148 22.1415C63.7702 22.4951 64.3006 22.947 65.224 22.947C66.1276 22.947 66.8152 22.5148 67.2081 21.8272ZM63.1808 19.1751H67.2081C67.0117 18.016 66.0687 17.4659 65.1847 17.4659C64.3006 17.4659 63.3773 18.0356 63.1808 19.1751Z" fill="#1B3882"/>
<path d="M59.8107 18.0945H58.1605V24.5579H55.7638V18.0945H54.8208V16.0514H55.7638V13.1439H58.1605V16.0514H59.8107V18.0945Z" fill="#1B3882"/>
<path d="M45.2698 24.5579V16.0515H47.6665V17.1516C48.1183 16.523 48.9238 15.7764 50.299 15.7764C51.0455 15.7764 52.1456 15.9925 52.8136 16.8176C53.4029 17.5445 53.4815 18.3893 53.4815 19.2144V24.5579H51.0848V19.9216C51.0848 19.4501 51.0651 18.7036 50.633 18.2517C50.2597 17.8588 49.7489 17.8195 49.5132 17.8195C48.8845 17.8195 48.3934 18.0356 48.0398 18.5661C47.6862 19.1161 47.6665 19.7251 47.6665 20.2163V24.5579H45.2698Z" fill="#1B3882"/>
<path d="M40.0791 11.4544H42.633V24.5578H40.0791V11.4544Z" fill="#1B3882"/>
<defs>
<clipPath id="clip0_114_2638">
<rect width="32.2118" height="31.2257" fill="white" transform="translate(0 0.247437)"/>
</clipPath>
</defs>
</svg>
